<?xml version="1.0" encoding="utf-8"?>
<!-- Generator: Adobe Illustrator 17.0.0, SVG Export Plug-In . SVG Version: 6.00 Build 0)  -->
<!DOCTYPE svg PUBLIC "-//W3C//DTD SVG 1.1//EN" "http://www.w3.org/Graphics/SVG/1.1/DTD/svg11.dtd">
<svg version="1.1" id="图层_1" xmlns="http://www.w3.org/2000/svg" xmlns:xlink="http://www.w3.org/1999/xlink" x="0px" y="0px"
	 width="45px" height="30px" viewBox="0 0 45 30" enable-background="new 0 0 45 30" xml:space="preserve">
<title>logo</title>
<path fill="#1989FA" d="M44.456,0.709c-0.106-0.187-0.331-0.273-0.535-0.204c-0.574,0.13-7.27,11.007-21.66,10.706h-0.004
	c-2.554,0.061-5.104-0.238-7.575-0.887l-1.251-3.929c-0.185-0.626-0.614-1.152-1.19-1.46c-0.664-0.339-1.05-0.23-1.132-0.136
	c-0.043,0.051-0.064,0.117-0.059,0.183l0.594,4.29C4.31,6.22,1.008,0.6,0.594,0.505C0.39,0.435,0.165,0.521,0.06,0.709
	c-0.069,0.174-0.071,0.367-0.006,0.542C2.08,7.157,6.548,11.96,12.368,14.485l1.593,10.379c0.109,2.96,2.145,4.654,4.793,4.654h7.92
	c2.648,0,4.63-1.852,4.797-4.654l1.451-8.582c0.014-0.062-0.005-0.126-0.05-0.17c-0.09-0.053-0.78-0.074-2.175,0.932
	c-0.847,0.623-1.497,1.477-1.87,2.46c0,0-1.509,3.57-1.906,5.094c-0.418,1.606-2.27,1.462-2.27,1.462h-4.247
	c-0.77,0.05-1.45-0.488-1.56-1.235l-2.65-9.053c1.984,0.485,4.02,0.725,6.063,0.715h0.004c10.407,0.04,19.062-6.15,22.203-15.236
	C44.528,1.076,44.525,0.883,44.456,0.709z"/>
</svg>
